PathFileType	3	(X/Y/Z)	D:\minhoCalibration\240510\subject1_KPNP\preferred\preferred18.trc
DataRate	CameraRate	NumFrames	NumMarkers	Units	OrigDataRate	OrigDataStartFrame	OrigNumFrames
200.0	200.0	30	10	mm	200.0	1239	152	
Frame#	Time	Left_Ankle_Outer1			Left_Ankle_Inner1			Left_Knee_Outer1			Left_Knee_Inner1			Left_Wrist1			Right_Wrist1			Right_Knee_Inner1			Right_Knee_Outer1			Right_Ankle_Inner1			Right_Ankle_Outer1			
		X1	Y1	Z1	X2	Y2	Z2	X3	Y3	Z3	X4	Y4	Z4	X5	Y5	Z5	X6	Y6	Z6	X7	Y7	Z7	X8	Y8	Z8	X9	Y9	Z9	X10	Y10	Z10	
1239	6.185	-526.04913	161.82025	-557.47473	-565.94006	170.44937	-517.50311	-375.54169	576.23938	-439.46927	-472.60391	556.95624	-392.69986	-422.06985	1007.8495	-659.91608	-646.04608	1182.3457	-425.76819	-340.24112	962.98212	-131.44153	-394.54587	1051.4325	-97.059151	-408.78479	796.64124	276.93347	-421.78854	887.04938	336.32825
1240	6.19	-525.72021	162.25153	-557.47485	-565.72296	170.69313	-517.45465	-375.33118	576.22137	-438.68002	-472.48279	557.12469	-391.80038	-419.69949	1009.8151	-656.69019	-649.198	1178.8906	-423.77438	-344.72922	956.39282	-130.82803	-399.53296	1044.8431	-94.42395	-415.61517	777.62396	271.42297	-429.69382	866.07172	334.24982
1241	6.195	-525.37866	162.39424	-557.60168	-565.19794	170.79106	-517.88269	-375.17181	576.06305	-437.95828	-471.69989	557.28864	-391.29193	-417.40567	1011.6711	-653.50641	-652.34772	1175.7175	-422.07043	-349.64407	950.19354	-130.08972	-404.92041	1037.9951	-92.208244	-422.24231	758.53632	264.90384	-438.14023	844.50842	331.31702
1242	6.2	-524.90308	162.35835	-557.9549	-565.04785	170.71297	-518.24042	-375.06857	575.79242	-437.24716	-471.92896	556.77484	-390.62689	-415.11841	1013.4573	-650.39459	-655.5387	1172.6614	-420.47046	-352.76871	944.65356	-130.39519	-410.64758	1030.7788	-90.100319	-429.64362	740.30005	258.14313	-447.70721	822.35632	327.77557
1243	6.205	-524.33185	162.16336	-558.48608	-564.81799	170.84776	-519.31116	-374.65454	575.42816	-436.61063	-472.41916	555.96674	-390.5148	-413.40643	1015.0175	-646.79608	-658.77344	1169.6058	-419.05759	-355.70227	939.64923	-130.61237	-416.47217	1023.2869	-88.010628	-436.91687	720.30554	250.63947	-457.54034	799.45483	322.80899
1244	6.21	-523.45062	161.95874	-559.3526	-563.7854	170.02965	-519.79321	-374.94067	575.03979	-435.65082	-472.87424	555.40283	-390.44385	-410.85291	1016.4028	-644.25677	-661.8819	1166.5227	-417.93018	-358.22659	935.1795	-130.75781	-422.31082	1015.427	-85.931664	-444.31879	700.73114	241.60822	-468.12131	775.98553	316.71649
1245	6.215	-522.63861	161.54958	-560.1015	-563.24158	170.14352	-521.29462	-374.56967	574.79791	-434.89481	-473.43802	554.72723	-390.81973	-409.38095	1017.5255	-640.79089	-664.66138	1163.1854	-417.04297	-359.12512	931.21527	-131.43658	-428.34488	1007.2838	-84.009041	-452.56592	679.83893	232.3974	-479.20212	752.23169	309.1232
1246	6.22	-521.92615	160.82162	-560.48956	-562.71857	169.39568	-522.49225	-374.53317	574.25592	-433.95544	-474.50278	554.0069	-390.85303	-407.53506	1018.4569	-637.74658	-667.11725	1159.7263	-416.3952	-362.36456	926.82904	-130.05589	-434.46252	998.85046	-82.311432	-459.87619	659.67346	221.37845	-491.05713	728.36432	300.21384
1247	6.225	-520.70148	160.40872	-561.79681	-561.86676	168.89967	-523.74518	-374.03021	573.85321	-433.03735	-474.31332	553.19946	-390.53113	-405.71124	1019.2577	-634.80023	-669.35608	1156.103	-415.70926	-364.2207	922.30804	-128.90218	-440.70294	990.21716	-80.866066	-468.74677	639.80066	210.64659	-502.58566	704.21625	289.68787
1248	6.23	-519.61774	159.78571	-562.86646	-561.35797	168.49393	-525.53308	-374.28757	572.91467	-431.72589	-474.92868	551.85583	-390.71024	-404.01089	1019.7741	-631.79199	-671.31409	1152.5122	-415.4921	-365.74283	917.46307	-127.67066	-447.04568	981.40265	-79.62645	-476.71799	619.14899	197.59088	-515.17249	680.38672	278.32983
1249	6.235	-518.60895	159.04645	-563.89319	-560.29297	167.69748	-526.71942	-374.09125	572.1496	-430.48196	-475.48514	551.25427	-390.39355	-402.34259	1020.0372	-628.92017	-672.92401	1148.7729	-415.47025	-366.47748	912.52478	-126.79593	-453.3309	972.17072	-78.519531	-485.02728	599.02936	184.09315	-527.40973	656.58234	265.47745
1250	6.24	-517.67761	158.17776	-564.72906	-559.58234	166.69609	-528.06592	-373.87601	571.18213	-429.1572	-475.74829	549.77655	-390.43042	-400.7493	1020.0783	-626.14197	-674.35352	1144.9288	-415.56168	-370.15698	906.54822	-124.09583	-459.41019	962.48657	-77.523834	-493.32877	579.48938	169.87292	-539.25922	633.16388	251.38429
1251	6.245	-516.59375	157.65097	-566.17212	-558.92072	166.18744	-529.82678	-373.5632	570.18176	-427.83972	-476.05646	548.5769	-390.15814	-399.22739	1019.9492	-623.4649	-675.724	1140.9861	-415.74237	-373.21555	899.82629	-122.30541	-465.31091	952.42932	-76.63485	-501.20425	559.97852	153.93468	-551.66351	609.73743	236.54982
1252	6.25	-515.80402	156.68028	-567.03906	-558.42194	165.38461	-531.3197	-373.22083	568.97565	-426.48923	-476.06558	547.31171	-389.81015	-397.71429	1019.6815	-620.8595	-676.98993	1137.0376	-416.2363	-376.92908	892.27515	-120.79148	-470.77322	941.35303	-76.194389	-509.82916	540.40521	138.99136	-563.41272	587.13971	220.72299
1253	6.255	-514.84283	156.03125	-568.46667	-557.79657	164.61627	-532.71503	-372.86581	567.70605	-425.07516	-476.03806	545.85773	-389.29895	-396.20432	1019.158	-618.33942	-678.53516	1133.0781	-416.4209	-381.0249	883.98468	-119.74769	-476.54987	930.82239	-75.447968	-518.34711	521.6889	123.18	-575.17542	565.00842	204.26486
1254	6.26	-514.16089	155.22591	-569.46649	-557.1745	163.21681	-533.67859	-372.46393	566.22198	-423.68756	-475.69284	544.61829	-388.52438	-394.79126	1018.3642	-615.78687	-679.82355	1128.8208	-416.49078	-385.39011	875.24194	-119.12489	-482.0296	919.51257	-75.093803	-525.63049	503.36493	106.07204	-586.15131	543.16748	186.80843
1255	6.265	-513.60382	154.21707	-570.44415	-557.05768	162.21017	-535.05762	-371.97787	564.64948	-422.31052	-475.75952	542.54462	-387.93512	-393.44202	1017.3602	-613.18695	-681.27606	1124.5848	-416.53726	-389.95312	866.13617	-118.87018	-487.81274	908.12524	-74.887733	-534.17926	485.52332	89.324532	-598.14056	521.66956	168.36896
1256	6.27	-513.09839	153.22971	-571.34778	-556.83746	161.15704	-536.32861	-371.56268	562.92719	-420.97482	-475.48047	540.77209	-387.07507	-392.1413	1016.1384	-610.63708	-682.70294	1120.1926	-416.61905	-394.85269	856.75531	-118.80473	-493.62729	896.31744	-75.122398	-542.03717	467.78955	71.685547	-608.94293	501.23721	150.22626
1257	6.275	-512.75836	152.05008	-572.30048	-556.58148	160.01247	-537.42346	-371.06888	561.14069	-419.67856	-475.25134	538.83429	-386.28229	-390.82028	1014.7084	-608.12549	-684.26245	1115.696	-416.63364	-399.96307	847.17255	-118.90376	-499.71942	884.45801	-75.641785	-548.74597	451.31363	53.091297	-619.53223	481.28134	131.51453
1258	6.28	-512.45459	150.87326	-573.14691	-556.61346	158.82803	-538.58691	-370.65381	559.06201	-418.3356	-475.01947	536.98999	-385.05362	-389.63669	1013.0874	-605.53387	-685.685	1111.079	-416.73312	-405.32034	837.41492	-119.15244	-506.00082	872.4502	-76.6978	-557.67694	434.37292	35.632435	-629.57532	461.4978	111.9165
1259	6.285	-512.33685	149.56514	-573.89685	-556.60199	157.37091	-539.76068	-370.20944	557.07074	-416.96399	-474.63226	534.89685	-384.54453	-388.40213	1011.3497	-602.95813	-687.06458	1106.1769	-416.89752	-411.01733	827.29193	-119.4922	-512.63715	860.41992	-78.235001	-565.33807	418.59869	17.198814	-639.61255	442.94684	93.001198
1260	6.29	-512.3219	148.3286	-574.70367	-556.66614	156.30171	-540.49573	-369.88318	554.86224	-415.59683	-474.60272	532.81641	-383.64297	-387.11417	1009.3579	-600.4057	-688.38983	1101.2833	-417.20386	-416.95364	816.81451	-119.9991	-519.56897	848.42157	-79.857231	-573.14575	402.76984	-1.4223578	-649.21185	424.39203	73.154373
1261	6.295	-512.52368	146.95813	-575.57837	-558.12427	155.63403	-543.05042	-369.53482	552.64697	-414.28448	-474.48105	530.58887	-382.76175	-385.84366	1007.2777	-597.76453	-689.60278	1096.2095	-417.54822	-423.17905	806.04224	-120.53901	-527.00958	836.06744	-82.064972	-579.84686	387.84216	-20.912651	-658.45465	406.52032	53.538731
1262	6.3	-512.77075	145.6508	-576.42651	-558.36365	154.23972	-543.92371	-369.07968	550.43109	-412.92099	-474.33035	528.34955	-381.90213	-384.54684	1005.0062	-595.06042	-690.60687	1091.0079	-418.12726	-429.64575	794.84833	-121.26532	-534.75018	823.49036	-84.750153	-587.8952	373.40112	-39.292061	-667.33496	389.2485	33.72604
1263	6.305	-513.13379	144.18201	-577.31396	-558.7298	153.07796	-545.08844	-368.7132	548.12512	-411.6871	-474.12811	526.32013	-380.93689	-383.20508	1002.7178	-592.34143	-691.54053	1085.7323	-418.65851	-436.33603	783.38611	-122.25069	-542.58301	810.31299	-88.12793	-595.94446	358.61194	-57.895554	-675.91602	372.54126	13.91003
1264	6.31	-513.59229	142.58296	-578.17474	-559.36121	151.6058	-546.07568	-368.65549	545.63342	-410.39819	-474.21277	524.05115	-379.93311	-381.7005	1000.2623	-589.70001	-692.2442	1080.4575	-419.27774	-443.20441	771.57806	-123.60065	-550.68951	797.18573	-91.770531	-601.72614	345.94391	-77.69944	-684.37054	356.65152	-5.3774133
1265	6.315	-514.01813	140.98253	-579.06256	-559.86279	150.02728	-547.15094	-368.35034	543.19379	-409.16257	-474.20816	521.46619	-379.19675	-380.30524	997.74561	-586.98206	-692.83203	1075.1714	-420.04559	-450.27737	759.43115	-125.48402	-558.74921	783.78375	-95.954948	-610.13123	332.31247	-95.339973	-692.29163	340.71835	-25.349014
1266	6.32	-514.31781	139.34703	-580.02722	-560.49652	148.43517	-548.39398	-368.21014	540.63696	-407.86893	-474.11325	519.12299	-378.31641	-378.81375	995.2027	-584.27643	-693.26318	1069.9567	-420.63831	-457.34439	746.94696	-128.08112	-566.55255	770.36652	-100.62418	-615.69775	320.18729	-115.17296	-699.98071	325.95053	-44.204037
1267	6.325	-514.6839	137.57396	-580.90637	-560.88208	146.79527	-549.41827	-368.16177	538.02301	-406.64563	-474.10754	516.69141	-377.41168	-377.44873	992.62158	-581.54846	-693.55109	1064.8142	-421.43622	-464.53448	734.1427	-131.39519	-574.88843	757.06689	-106.29295	-621.21692	308.37656	-135.02116	-707.16156	310.50174	-64.13871
1268	6.33	-514.93427	135.85489	-581.95184	-561.14801	145.14473	-550.4856	-368.16046	535.37451	-405.46381	-474.46805	514.15948	-376.42291	-375.96417	990.10583	-578.87207	-693.79456	1059.7728	-422.15494	-471.69049	721.13269	-135.58954	-582.35431	744.0072	-112.15831	-630.99683	294.61807	-149.87674	-714.31653	296.7381	-82.047569
